<svg xmlns="http://www.w3.org/2000/svg" version="1.1" xmlns:xlink="http://www.w3.org/1999/xlink" xmlns:svgjs="http://svgjs.dev/svgjs" width="2000" height="1999" viewBox="0 0 2000 1999"><g transform="matrix(1,0,0,1,-0.431486880466764,-0.4312711370263287)"><svg viewBox="0 0 343 343" data-background-color="#ffffff" preserveAspectRatio="xMidYMid meet" height="1999" width="2000" xmlns="http://www.w3.org/2000/svg" xmlns:xlink="http://www.w3.org/1999/xlink"><g id="tight-bounds" transform="matrix(1,0,0,1,0.0740000000000407,0.07400000000001228)"><svg viewBox="0 0 342.85155851775386 342.85155851775386" height="342.85155851775386" width="342.85155851775386"><g><svg></svg></g><g><svg viewBox="0 0 342.85155851775386 342.85155851775386" height="342.85155851775386" width="342.85155851775386"><g><path d="M0 171.426c0-94.676 76.75-171.426 171.426-171.426 94.676 0 171.426 76.75 171.426 171.426 0 94.676-76.75 171.426-171.426 171.426-94.676 0-171.426-76.75-171.426-171.426zM171.426 326.897c85.864 0 155.471-69.607 155.471-155.471 0-85.864-69.607-155.471-155.471-155.472-85.864 0-155.471 69.607-155.472 155.472 0 85.864 69.607 155.471 155.472 155.471z" data-fill-palette-color="tertiary" fill="#f92800" stroke="transparent"></path><ellipse rx="164.56874808852186" ry="164.56874808852186" cx="171.42577925887693" cy="171.42577925887693" fill="#f92800" stroke="transparent" stroke-width="0" fill-opacity="1" data-fill-palette-color="tertiary"></ellipse></g><g transform="matrix(1,0,0,1,64.84655864529837,82.96809759688665)"><svg viewBox="0 0 213.1584412271571 176.91536332398056" height="176.91536332398056" width="213.1584412271571"><g><svg viewBox="0 0 213.1584412271571 176.91536332398056" height="176.91536332398056" width="213.1584412271571"><g><svg viewBox="0 0 213.1584412271571 176.91536332398056" height="176.91536332398056" width="213.1584412271571"><g id="textblocktransform"><svg viewBox="0 0 213.1584412271571 176.91536332398056" height="176.91536332398056" width="213.1584412271571" id="textblock"><g><svg viewBox="0 0 213.1584412271571 176.91536332398056" height="176.91536332398056" width="213.1584412271571"><g transform="matrix(1,0,0,1,0,0)"><svg width="213.1584412271571" viewBox="2.44 -35.16 42.36 35.16" height="176.91536332398056" data-palette-color="#ffffff"><path d="M2.44 0L2.44 0Q2.59-0.61 2.7-1.48 2.81-2.34 2.81-3.27L2.81-3.27Q2.81-4.13 2.69-4.94 2.56-5.76 2.44-6.35L2.44-6.35Q3.54-6.35 4.37-6.52 5.2-6.69 5.76-7.09 6.32-7.5 6.6-8.19 6.88-8.89 6.88-9.94L6.88-9.94Q6.88-12.16 6.77-13.65 6.67-15.14 6.46-16.05 6.25-16.97 5.93-17.4 5.62-17.82 5.2-17.94L5.2-17.94Q5.64-18.09 5.96-18.47 6.27-18.85 6.48-19.7 6.69-20.56 6.79-21.98 6.88-23.41 6.88-25.66L6.88-25.66Q6.88-26.64 6.57-27.25 6.25-27.86 5.71-28.21 5.18-28.56 4.46-28.69 3.74-28.81 2.91-28.81L2.91-28.81 2.44-28.81Q2.56-29.39 2.69-30.16 2.81-30.93 2.81-31.79L2.81-31.79Q2.81-32.69 2.7-33.62 2.59-34.55 2.44-35.16L2.44-35.16Q3.39-34.81 5.15-34.56 6.91-34.3 9.72-34.3L9.72-34.3Q11.55-34.3 13.28-34.51 15.01-34.72 16.48-34.99L16.48-34.99Q16.48-33.81 16.97-32.32 17.46-30.83 18.29-29.2 19.12-27.56 20.18-25.87 21.24-24.17 22.4-22.58 23.56-21 24.72-19.59 25.88-18.19 26.89-17.15 27.91-16.11 28.66-15.5 29.42-14.89 29.79-14.89L29.79-14.89 29.83-14.89Q29.86-14.89 29.9-14.88 29.93-14.87 29.98-14.87L29.98-14.87Q30.18-15.6 30.29-16.72 30.4-17.85 30.46-19.26 30.52-20.68 30.54-22.3 30.57-23.93 30.57-25.66L30.57-25.66Q30.57-26.64 30.25-27.25 29.93-27.86 29.39-28.21 28.86-28.56 28.14-28.69 27.42-28.81 26.59-28.81L26.59-28.81 26.12-28.81Q26.25-29.39 26.37-30.16 26.49-30.93 26.49-31.79L26.49-31.79Q26.49-32.69 26.38-33.62 26.27-34.55 26.12-35.16L26.12-35.16Q26.59-34.99 27.59-34.84 28.59-34.69 29.88-34.57 31.18-34.45 32.63-34.38 34.08-34.3 35.47-34.3L35.47-34.3Q36.89-34.3 38.34-34.38 39.79-34.45 41.08-34.57 42.36-34.69 43.33-34.84 44.31-34.99 44.8-35.16L44.8-35.16Q44.65-34.55 44.54-33.62 44.43-32.69 44.43-31.79L44.43-31.79Q44.43-30.93 44.56-30.16 44.68-29.39 44.8-28.81L44.8-28.81 44.29-28.81Q43.41-28.81 42.68-28.69 41.94-28.56 41.43-28.21 40.92-27.86 40.64-27.25 40.36-26.64 40.36-25.66L40.36-25.66Q40.36-23.41 40.49-21.95 40.63-20.48 40.88-19.6 41.14-18.73 41.49-18.36 41.85-17.99 42.29-17.94L42.29-17.94Q41.87-17.72 41.55-17.26 41.24-16.8 41.03-15.8 40.82-14.79 40.71-13.13 40.6-11.47 40.6-8.86L40.6-8.86Q40.6-7.1 40.75-5.65 40.89-4.2 41.1-3.09 41.31-1.98 41.55-1.21 41.8-0.44 41.99 0L41.99 0Q41.38-0.2 40.63-0.32 39.87-0.44 39.09-0.5 38.31-0.56 37.57-0.59 36.84-0.61 36.3-0.61L36.3-0.61Q35.72-0.61 34.99-0.59 34.25-0.56 33.48-0.5 32.71-0.44 31.93-0.32 31.15-0.2 30.49 0L30.49 0Q30.49-1.22 29.8-2.91 29.1-4.59 27.97-6.45 26.83-8.3 25.4-10.21 23.97-12.11 22.52-13.81 21.07-15.5 19.73-16.86 18.38-18.21 17.43-18.97L17.43-18.97Q16.97-17.87 16.82-15.53 16.67-13.18 16.67-9.94L16.67-9.94Q16.67-8.89 16.91-8.19 17.14-7.5 17.68-7.09 18.21-6.69 19.06-6.52 19.9-6.35 21.12-6.35L21.12-6.35Q21-5.76 20.87-4.94 20.75-4.13 20.75-3.27L20.75-3.27Q20.75-2.34 20.86-1.48 20.97-0.61 21.12 0L21.12 0Q20.41-0.15 19.34-0.26 18.26-0.37 16.99-0.45 15.72-0.54 14.38-0.57 13.04-0.61 11.79-0.61L11.79-0.61Q10.55-0.61 9.19-0.57 7.84-0.54 6.57-0.45 5.3-0.37 4.21-0.26 3.13-0.15 2.44 0Z" opacity="1" transform="matrix(1,0,0,1,0,0)" fill="#ffffff" class="wordmark-text-0" data-fill-palette-color="quaternary" id="text-0"></path></svg></g></svg></g></svg></g></svg></g></svg></g></svg></g></svg></g><defs></defs></svg><rect width="342.85155851775386" height="342.85155851775386" fill="none" stroke="none" visibility="hidden"></rect></g></svg></g></svg>